# xmcd
#
# Track frame offsets: 
#        150
#        1785
#        9823
#        19443
#        35486
#        53156
#        67620
#        77925
#        92133
#        94140
#        107883
#        123262
#        131785
#        152598
#        162350
#        174727
#        187026
#        198626
#        200176
#        216535
#        227456
#        240004
#        251978
#        266903
#        279532
#        296553
#        315246
#        331280
#
# Disc length: 4686 seconds
#
# Revision: 0
# Processed by: cddbd v1.5.2PL0 Copyright (c) Steve Scherf et al.
# Submitted via: ExactAudioCopy v0.99pb5
#
DISCID=8f124c1c
DTITLE=DJ Rick Lee Presents - Throwbacks and Smoke Sessions Vol. 2 - N
DTITLE=o Bammer Weed Edition
DYEAR=1900
DGENRE=Rap
TTITLE0=Black C Intro
TTITLE1=Blue Bird - RBL Posse
TTITLE2=Let's Ride - Richie Rich
TTITLE3=Hurricane - E-40, The Click
TTITLE4=I Got 5 On It - The Luniz, The Bay
TTITLE5=Players Ball - E-40, Too Short
TTITLE6=Come See Us - KNT, San Quinn
TTITLE7=Bounce To This - RBL Posse
TTITLE8=Black C Speaks
TTITLE9=Im A Playa - Too Short
TTITLE10=My Thang - Dubee
TTITLE11=City To City - B-Legit, Leviti
TTITLE12=Playas Holiday - TWDY
TTITLE13=Mr. Flamboyant - E-40
TTITLE14=Dusted and Disgusted - The Click, Spice-1, 2 Pac
TTITLE15=Macknificent - Mac Mall
TTITLE16=Get Liftef - The Whoridas
TTITLE17=Black C Speaks
TTITLE18=How We Comin - RBL Posse, Mystikal
TTITLE19=I Get Around - 2 Pac
TTITLE20=Groupie Ass Bitch - 415
TTITLE21=Shinin' Star - IMP
TTITLE22=Keep It On The Real - 3xKrazy
TTITLE23=Doin It Live - The Delinquents, Master P
TTITLE24=Scanless - IMP
TTITLE25=Playas Club - Rappin 4-Tay
TTITLE26=Don't Fight The Feeling - Too Short, Rappin 4-Tay
TTITLE27=Sleepin In My Nikes - Seagram, Scarface
EXTD=
EXTT0=
EXTT1=
EXTT2=
EXTT3=
EXTT4=
EXTT5=
EXTT6=
EXTT7=
EXTT8=
EXTT9=
EXTT10=
EXTT11=
EXTT12=
EXTT13=
EXTT14=
EXTT15=
EXTT16=
EXTT17=
EXTT18=
EXTT19=
EXTT20=
EXTT21=
EXTT22=
EXTT23=
EXTT24=
EXTT25=
EXTT26=
EXTT27=
PLAYORDER=
